<svg xmlns="http://www.w3.org/2000/svg" xmlns:xlink="http://www.w3.org/1999/xlink" width="500" zoomAndPan="magnify" viewBox="0 0 375 374.999991" height="500" preserveAspectRatio="xMidYMid meet" version="1.0"><defs><g/><clipPath id="c354e7cbb4"><path d="M 37.800781 37.5 L 337.5 37.5 L 337.5 338 L 37.800781 338 Z M 37.800781 37.5 " clip-rule="nonzero"/></clipPath><clipPath id="136ca63978"><path d="M 337.5 93.75 L 337.5 281.234375 C 337.5 312.300781 312.316406 337.484375 281.25 337.484375 L 94.050781 337.484375 C 62.984375 337.484375 37.800781 312.300781 37.800781 281.234375 L 37.800781 93.75 C 37.800781 62.683594 62.984375 37.5 94.050781 37.5 L 281.25 37.5 C 312.316406 37.5 337.5 62.683594 337.5 93.75 Z M 337.5 93.75 " clip-rule="nonzero"/></clipPath><clipPath id="849af40255"><path d="M 0.800781 0.5 L 300.5 0.5 L 300.5 300.679688 L 0.800781 300.679688 Z M 0.800781 0.5 " clip-rule="nonzero"/></clipPath><clipPath id="3601cf7080"><path d="M 300.5 56.75 L 300.5 244.234375 C 300.5 275.300781 275.316406 300.484375 244.25 300.484375 L 57.050781 300.484375 C 25.984375 300.484375 0.800781 275.300781 0.800781 244.234375 L 0.800781 56.75 C 0.800781 25.683594 25.984375 0.5 57.050781 0.5 L 244.25 0.5 C 275.316406 0.5 300.5 25.683594 300.5 56.75 Z M 300.5 56.75 " clip-rule="nonzero"/></clipPath><clipPath id="3434bf4b51"><rect x="0" width="301" y="0" height="301"/></clipPath><clipPath id="0f6f94f5bb"><path d="M 106.589844 106.507812 L 268.589844 106.507812 L 268.589844 268.507812 L 106.589844 268.507812 Z M 106.589844 106.507812 " clip-rule="nonzero"/></clipPath><clipPath id="4a9c0b25c2"><path d="M 268.402344 117.761719 L 268.402344 257.230469 C 268.402344 260.214844 267.21875 263.074219 265.105469 265.1875 C 262.996094 267.296875 260.136719 268.480469 257.152344 268.480469 L 117.839844 268.480469 C 114.855469 268.480469 111.996094 267.296875 109.882812 265.1875 C 107.773438 263.074219 106.589844 260.214844 106.589844 257.230469 L 106.589844 117.761719 C 106.589844 114.777344 107.773438 111.917969 109.882812 109.808594 C 111.996094 107.699219 114.855469 106.511719 117.839844 106.511719 L 257.152344 106.511719 C 260.136719 106.511719 262.996094 107.699219 265.105469 109.808594 C 267.21875 111.917969 268.402344 114.777344 268.402344 117.761719 Z M 268.402344 117.761719 " clip-rule="nonzero"/></clipPath><clipPath id="1e39678067"><rect x="0" width="83" y="0" height="166"/></clipPath></defs><g clip-path="url(#c354e7cbb4)"><g clip-path="url(#136ca63978)"><g transform="matrix(1, 0, 0, 1, 37, 37)"><g clip-path="url(#3434bf4b51)"><g clip-path="url(#849af40255)"><g clip-path="url(#3601cf7080)"><path fill="#2985a3" d="M 0.800781 0.5 L 300.5 0.5 L 300.5 300.199219 L 0.800781 300.199219 Z M 0.800781 0.5 " fill-opacity="1" fill-rule="nonzero"/></g></g></g></g></g></g><g clip-path="url(#0f6f94f5bb)"><g clip-path="url(#4a9c0b25c2)"><path stroke-linecap="butt" transform="matrix(0.75, 0, 0, 0.75, 106.589822, 106.512979)" fill="none" stroke-linejoin="miter" d="M 215.750043 14.99832 L 215.750043 200.956666 C 215.750043 204.935833 214.171918 208.748333 211.359417 211.566041 C 208.541709 214.378542 204.729209 215.956667 200.750042 215.956667 L 15.00003 215.956667 C 11.020863 215.956667 7.208362 214.378542 4.390654 211.566041 C 1.578154 208.748333 0.0000285992 204.935833 0.0000285992 200.956666 L 0.0000285992 14.99832 C 0.0000285992 11.019153 1.578154 7.206653 4.390654 4.394153 C 7.208362 1.581653 11.020863 -0.00168087 15.00003 -0.00168087 L 200.750042 -0.00168087 C 204.729209 -0.00168087 208.541709 1.581653 211.359417 4.394153 C 214.171918 7.206653 215.750043 11.019153 215.750043 14.99832 Z M 215.750043 14.99832 " stroke="#ffffff" stroke-width="20" stroke-opacity="1" stroke-miterlimit="4"/></g></g><g transform="matrix(1, 0, 0, 1, 146, 97)"><g clip-path="url(#1e39678067)"><g fill="#ffffff" fill-opacity="1"><g transform="translate(5.204023, 132.942831)"><g><path d="M 76.65625 -88.40625 C 75.832031 -86.257812 74.71875 -83.144531 73.3125 -79.0625 C 71.914062 -74.988281 70.597656 -69.695312 69.359375 -63.1875 L 66.890625 -63.1875 C 67.140625 -64.332031 67.320312 -65.523438 67.4375 -66.765625 C 67.5625 -68.003906 67.625 -69.117188 67.625 -70.109375 C 67.625 -73.316406 66.941406 -76.132812 65.578125 -78.5625 C 64.222656 -81 62.25 -82.894531 59.65625 -84.25 C 57.0625 -85.613281 53.828125 -86.296875 49.953125 -86.296875 C 45.828125 -86.296875 42.300781 -85.242188 39.375 -83.140625 C 36.445312 -81.046875 34.984375 -77.609375 34.984375 -72.828125 C 34.984375 -69.941406 35.679688 -67.15625 37.078125 -64.46875 C 38.484375 -61.789062 40.28125 -59.175781 42.46875 -56.625 C 44.65625 -54.070312 46.984375 -51.492188 49.453125 -48.890625 C 51.929688 -46.296875 54.28125 -43.660156 56.5 -40.984375 C 58.726562 -38.304688 60.539062 -35.484375 61.9375 -32.515625 C 63.34375 -29.546875 64.046875 -26.375 64.046875 -23 C 64.046875 -18.550781 62.953125 -14.757812 60.765625 -11.625 C 58.585938 -8.488281 55.765625 -5.929688 52.296875 -3.953125 C 48.835938 -1.972656 45.128906 -0.53125 41.171875 0.375 C 37.210938 1.28125 33.460938 1.734375 29.921875 1.734375 C 26.046875 1.734375 22.847656 1.484375 20.328125 0.984375 C 17.816406 0.492188 15.65625 -0.179688 13.84375 -1.046875 C 12.03125 -1.910156 10.257812 -2.878906 8.53125 -3.953125 C 7.625 -4.535156 6.800781 -4.988281 6.0625 -5.3125 C 5.320312 -5.644531 4.703125 -5.8125 4.203125 -5.8125 C 3.128906 -5.8125 2.265625 -5.316406 1.609375 -4.328125 C 0.953125 -3.335938 0.0859375 -1.609375 -0.984375 0.859375 L -3.46875 0.859375 C -2.71875 -0.953125 -1.929688 -3.050781 -1.109375 -5.4375 C -0.285156 -7.832031 0.617188 -10.90625 1.609375 -14.65625 C 2.597656 -18.40625 3.710938 -23.125 4.953125 -28.8125 L 7.421875 -28.8125 C 7.003906 -27.40625 6.691406 -25.816406 6.484375 -24.046875 C 6.285156 -22.273438 6.226562 -20.609375 6.3125 -19.046875 C 6.550781 -13.191406 8.378906 -8.71875 11.796875 -5.625 C 15.222656 -2.53125 20.109375 -0.984375 26.453125 -0.984375 C 32.054688 -0.984375 36.113281 -2.132812 38.625 -4.4375 C 41.144531 -6.75 42.40625 -9.925781 42.40625 -13.96875 C 42.40625 -17.4375 41.765625 -20.609375 40.484375 -23.484375 C 39.210938 -26.367188 37.566406 -29.085938 35.546875 -31.640625 C 33.523438 -34.203125 31.398438 -36.695312 29.171875 -39.125 C 26.953125 -41.5625 24.832031 -44.054688 22.8125 -46.609375 C 20.789062 -49.171875 19.160156 -51.929688 17.921875 -54.890625 C 16.691406 -57.859375 16.078125 -61.078125 16.078125 -64.546875 C 16.078125 -68.742188 16.984375 -72.390625 18.796875 -75.484375 C 20.609375 -78.578125 23.035156 -81.148438 26.078125 -83.203125 C 29.128906 -85.265625 32.425781 -86.789062 35.96875 -87.78125 C 39.519531 -88.769531 43.023438 -89.265625 46.484375 -89.265625 C 51.347656 -89.265625 55.304688 -88.664062 58.359375 -87.46875 C 61.410156 -86.28125 63.96875 -85.066406 66.03125 -83.828125 C 66.769531 -83.335938 67.53125 -82.882812 68.3125 -82.46875 C 69.09375 -82.050781 69.691406 -81.84375 70.109375 -81.84375 C 71.253906 -81.84375 72.613281 -84.03125 74.1875 -88.40625 Z M 76.65625 -88.40625 "/></g></g></g></g></g></svg>